<?xml version="1.0"?>
<svg xmlns="http://www.w3.org/2000/svg" width="1920" height="1920" viewBox="-960 -960 1920 1920">
    <path d="M750,0C750,414.21 414.21,750 0,750C-414.21,750 -750,414.21 -750,0C-750,-414.21 -414.21,-750 0,-750C414.21,-750 750,-414.21 750,0Z" stroke-width="2" fill="none" stroke="#848478"/>
    <path d="M500,0C500,276.14 276.14,500 0,500C-276.14,500 -500,276.14 -500,0C-500,-276.14 -276.14,-500 0,-500C276.14,-500 500,-276.14 500,0Z" stroke-width="2" fill="none" stroke="#848478"/>
    <path d="M83,0C83,45.84 45.84,83 0,83C-45.84,83 -83,45.84 -83,0C-83,-45.84 -45.84,-83 0,-83C45.84,-83 83,-45.84 83,0Z" stroke-width="3" fill="#606767" stroke="#c2d3ba"/>
    <path d="M-90.58,-25.80C-67.66,-65.50 -16.90,-79.10 22.80,-56.19C62.50,-33.27 76.10,17.50 53.18,57.20C30.26,96.89 -20.50,110.49 -60.20,87.58C-99.90,64.66 -113.50,13.89 -90.58,-25.80Z" stroke-width="3" fill="#8ca573" stroke="#c2d3ba"/>
    <path d="M20.86,27.63C-18.84,50.55 -69.60,36.95 -92.52,-2.75C-115.44,-42.45 -101.84,-93.21 -62.14,-116.13C-22.44,-139.05 28.32,-125.45 51.24,-85.75C74.16,-46.05 60.56,4.71 20.86,27.63Z" stroke-width="3" fill="#606767" stroke="#c2d3ba"/>
    <path d="M72.12,-95.73C117.96,-95.73 155.12,-58.57 155.12,-12.73C155.12,33.11 117.96,70.27 72.12,70.27C26.29,70.27 -10.88,33.11 -10.88,-12.73C-10.88,-58.57 26.29,-95.73 72.12,-95.73Z" stroke-width="3" fill="#8ca573" stroke="#c2d3ba"/>
    <path d="M-50.00,169.16C-89.70,146.24 -103.30,95.48 -80.38,55.78C-57.46,16.08 -6.70,2.48 33.00,25.40C72.70,48.32 86.30,99.08 63.38,138.78C40.46,178.48 -10.30,192.08 -50.00,169.16Z" stroke-width="3" fill="#606767" stroke="#c2d3ba"/>
    <path d="M-42.83,-83.23C-19.91,-43.53 -33.51,7.23 -73.21,30.15C-112.91,53.07 -163.67,39.47 -186.59,-0.23C-209.51,-39.93 -195.91,-90.69 -156.21,-113.61C-116.51,-136.53 -65.75,-122.93 -42.83,-83.23Z" stroke-width="3" fill="#8ca573" stroke="#c2d3ba"/>
    <path d="M1,-120C1,-165.84 38.16,-203 84,-203C129.84,-203 167,-165.84 167,-120C167,-74.16 129.84,-37 84,-37C38.16,-37 1,-74.16 1,-120Z" stroke-width="3" fill="#606767" stroke="#c2d3ba"/>
    <path d="M181.75,172.40C158.83,212.09 108.06,225.70 68.37,202.78C28.67,179.86 15.07,129.09 37.99,89.40C60.91,49.70 111.67,36.10 151.37,59.02C191.06,81.94 204.67,132.70 181.75,172.40Z" stroke-width="3" fill="#8ca573" stroke="#c2d3ba"/>
    <path d="M-218.49,10.68C-178.80,-12.24 -128.03,1.37 -105.11,41.06C-82.19,80.76 -95.80,131.52 -135.49,154.44C-175.19,177.36 -225.96,163.76 -248.87,124.06C-271.79,84.37 -258.19,33.60 -218.49,10.68Z" stroke-width="3" fill="#606767" stroke="#c2d3ba"/>
    <path d="M-38.18,-133.37C-84.02,-133.37 -121.18,-170.54 -121.18,-216.37C-121.18,-262.21 -84.02,-299.37 -38.18,-299.37C7.66,-299.37 44.82,-262.21 44.82,-216.37C44.82,-170.54 7.66,-133.37 -38.18,-133.37Z" stroke-width="3" fill="#8ca573" stroke="#c2d3ba"/>
    <path d="M284.71,-50.64C324.40,-27.72 338.01,23.05 315.09,62.74C292.17,102.44 241.40,116.04 201.71,93.12C162.01,70.20 148.41,19.44 171.32,-20.26C194.24,-59.95 245.01,-73.56 284.71,-50.64Z" stroke-width="3" fill="#606767" stroke="#c2d3ba"/>
    <path d="M-163.69,293.86C-186.61,254.16 -173.01,203.40 -133.31,180.48C-93.61,157.56 -42.85,171.16 -19.93,210.86C2.99,250.56 -10.61,301.32 -50.31,324.24C-90.01,347.16 -140.77,333.56 -163.69,293.86Z" stroke-width="3" fill="#8ca573" stroke="#c2d3ba"/>
    <path d="M-187.06,711.76C-187.06,739.38 -209.44,761.76 -237.06,761.76C-264.67,761.76 -287.06,739.38 -287.06,711.76C-287.06,684.15 -264.67,661.76 -237.06,661.76C-209.44,661.76 -187.06,684.15 -187.06,711.76Z" fill="#c5c065"/>
    <path d="M761.76,237.06C761.76,264.67 739.38,287.06 711.76,287.06C684.15,287.06 661.76,264.67 661.76,237.06C661.76,209.44 684.15,187.06 711.76,187.06C739.38,187.06 761.76,209.44 761.76,237.06Z" fill="#c5c065"/>
    <path d="M50,-750C50,-722.39 27.61,-700 0,-700C-27.61,-700 -50,-722.39 -50,-750C-50,-777.61 -27.61,-800 0,-800C27.61,-800 50,-777.61 50,-750Z" fill="#c5c065"/>
    <path d="M492.94,-605.29C492.94,-577.68 470.55,-555.29 442.94,-555.29C415.33,-555.29 392.94,-577.68 392.94,-605.29C392.94,-632.91 415.33,-655.29 442.94,-655.29C470.55,-655.29 492.94,-632.91 492.94,-605.29Z" fill="#c5c065"/>
    <path d="M-353.53,295.29C-353.53,322.91 -375.91,345.29 -403.53,345.29C-431.14,345.29 -453.53,322.91 -453.53,295.29C-453.53,267.68 -431.14,245.29 -403.53,245.29C-375.91,245.29 -353.53,267.68 -353.53,295.29Z" fill="#c5c065"/>
    <path d="M208.04,-474.51C208.04,-446.90 185.65,-424.51 158.04,-424.51C130.42,-424.51 108.04,-446.90 108.04,-474.51C108.04,-502.12 130.42,-524.51 158.04,-524.51C185.65,-524.51 208.04,-502.12 208.04,-474.51Z" fill="#c5c065"/>
</svg>