<svg height='100px' width='100px'  fill="#000000" xmlns:dc="http://purl.org/dc/elements/1.1/" xmlns:cc="http://creativecommons.org/ns#" xmlns:rdf="http://www.w3.org/1999/02/22-rdf-syntax-ns#" xmlns:svg="http://www.w3.org/2000/svg" xmlns="http://www.w3.org/2000/svg" version="1.1" viewBox="0 0 100 100" xml:space="preserve" x="0px" y="0px"><path d="m 50.4375,5 1.59375,1.59375 4.125,4.125 L 52,14.90625 51.09375,15.8125 c 11.847407,0.369186 22.150274,6.726783 28,16.15625 l 7.59375,3.84375 3.28125,-6.46875 C 82.535513,15.015832 67.626593,5.1648214 50.4375,5 z m -7.75,0.59375 C 26.11759,8.3103294 12.582798,20.104349 7.34375,35.6875 l 2,-1.03125 L 14.5625,32 17.25,37.25 17.8125,38.375 C 21.657109,27.677353 30.655874,19.473228 41.84375,16.75 l 6,-6 -5.15625,-5.15625 z m 50.25,30.90625 -1,2 -2.6875,5.21875 -5.25,-2.6875 -1.125,-0.5625 c 0.870334,3.021727 1.34375,6.225023 1.34375,9.53125 0,8.42899 -3.029252,16.137431 -8.0625,22.09375 L 74.8125,80.5 82,81.625 C 90.045036,73.491359 95,62.318566 95,50 95,45.303114 94.278118,40.759462 92.9375,36.5 z M 12,39.90625 5.5,43.21875 C 5.1656329,45.426517 5,47.700199 5,50 5,64.78179 12.18229,77.917172 23.21875,86.125 l -0.375,-2.1875 -0.90625,-5.78125 5.84375,-0.9375 L 29,77.03125 C 20.953039,70.776784 15.78125,61.009443 15.78125,50 c 0,-0.835655 0.03531,-1.648492 0.09375,-2.46875 L 12,39.90625 z M 69.25,78.3125 c -5.477741,3.722655 -12.111551,5.90625 -19.25,5.90625 -4.575282,0 -8.92205,-0.909981 -12.90625,-2.53125 l -8.40625,1.34375 1.125,7.1875 C 35.884788,93.27757 42.748871,95 50,95 59.716207,95 68.730991,91.91129 76.09375,86.65625 L 73.90625,86.3125 68.125,85.375 69.03125,79.5625 69.25,78.3125 z" style="text-indent:0;text-transform:none;direction:ltr;block-progression:tb;baseline-shift:baseline;color:#000000;enable-background:accumulate;" fill="#000000" fill-opacity="1" fill-rule="evenodd" stroke="none" marker="none" visibility="visible" display="inline" overflow="visible"></path></svg>