<svg height='100px' width='100px'  fill="#000000" xmlns="http://www.w3.org/2000/svg" xmlns:xlink="http://www.w3.org/1999/xlink" version="1.1" x="0px" y="0px" viewBox="-255 347 100 100" style="enable-background:new -255 347 100 100;" xml:space="preserve"><path d="M-233,397.2c0-0.8-0.7-1.5-1.5-1.5l0,0c-0.8,0-1.5,0.7-1.5,1.5c0,2.9,0.4,5.7,1.2,8.4c0.2,0.7,0.8,1.1,1.4,1.1  c0.1,0,0.3,0,0.4-0.1c0.8-0.2,1.2-1.1,1-1.9C-232.6,402.3-233,399.8-233,397.2z"></path><path d="M-195,372.6c2.3,1.1,4.5,2.4,6.5,4.1c0.3,0.2,0.6,0.4,1,0.4s0.8-0.2,1.1-0.5c0.5-0.6,0.5-1.6-0.2-2.1  c-2.2-1.9-4.6-3.4-7.2-4.6c-0.8-0.3-1.6,0-2,0.7C-196.1,371.4-195.7,372.3-195,372.6z"></path><path d="M-224.7,377.2c0.3,0,0.7-0.1,1-0.4c1.9-1.7,4.1-3.1,6.4-4.2c0.8-0.3,1.1-1.2,0.7-2c-0.3-0.8-1.2-1.1-2-0.7  c-2.6,1.2-5,2.7-7.1,4.6c-0.6,0.5-0.7,1.5-0.1,2.1C-225.6,377-225.1,377.2-224.7,377.2z"></path><path d="M-209.9,423.8c-2.5-0.4-5-1.1-7.3-2.1c-0.8-0.3-1.6,0-2,0.7c-0.3,0.8,0,1.6,0.7,2c2.6,1.2,5.3,2,8.2,2.4c0.1,0,0.1,0,0.2,0  c0.7,0,1.4-0.5,1.5-1.3C-208.5,424.7-209.1,423.9-209.9,423.8z"></path><path d="M-233.8,390.6c0.1,0,0.3,0.1,0.4,0.1c0.7,0,1.2-0.4,1.4-1.1c0.7-2.5,1.8-4.8,3.2-7c0.4-0.7,0.2-1.6-0.5-2.1  s-1.6-0.2-2.1,0.5c-1.5,2.4-2.7,5-3.5,7.7C-235,389.6-234.6,390.4-233.8,390.6z"></path><path d="M-228.7,411.7c-0.5-0.7-1.4-0.9-2.1-0.4c-0.7,0.4-0.9,1.4-0.4,2.1c1.5,2.4,3.4,4.6,5.6,6.4c0.3,0.2,0.6,0.4,1,0.4  c0.4,0,0.8-0.2,1.1-0.5c0.5-0.7,0.5-1.7-0.2-2.2C-225.6,415.8-227.3,413.9-228.7,411.7z"></path><path d="M-177.7,395.5c-0.8,0-1.5,0.7-1.5,1.5v0.1c0,2.6-0.4,5.1-1.1,7.6c-0.2,0.8,0.2,1.6,1,1.9c0.1,0,0.3,0.1,0.4,0.1  c0.6,0,1.2-0.4,1.4-1.1c0.8-2.7,1.2-5.6,1.2-8.4v-0.1C-176.2,396.2-176.8,395.5-177.7,395.5z"></path><path d="M-200.6,369.2c0.1-0.8-0.5-1.6-1.3-1.7c-1.4-0.2-2.8-0.3-4.2-0.3l0,0c-1.4,0-2.9,0.1-4.3,0.3c-0.8,0.1-1.4,0.9-1.3,1.7  c0.1,0.7,0.8,1.3,1.5,1.3c0.1,0,0.1,0,0.2,0c1.3-0.2,2.6-0.3,3.9-0.3s2.5,0.1,3.7,0.3C-201.5,370.6-200.7,370-200.6,369.2z"></path><path d="M-181.4,411.2c-0.7-0.4-1.6-0.2-2.1,0.5c-1.4,2.2-3.1,4.1-5,5.8c-0.6,0.5-0.7,1.5-0.1,2.1c0.3,0.3,0.7,0.5,1.1,0.5  c0.3,0,0.7-0.1,1-0.4c2.2-1.9,4-4,5.6-6.4C-180.5,412.6-180.7,411.7-181.4,411.2z"></path><path d="M-194.9,421.6c-2.3,1.1-4.8,1.8-7.3,2.2c-0.8,0.1-1.4,0.9-1.3,1.7c0.1,0.7,0.7,1.3,1.5,1.3c0.1,0,0.1,0,0.2,0  c2.8-0.4,5.6-1.2,8.2-2.4c0.8-0.3,1.1-1.2,0.7-2C-193.2,421.6-194.1,421.3-194.9,421.6z"></path><path d="M-175.1,381.6c-0.8-0.3-1.6,0.2-1.9,1l-1.2,3.8c-0.7-1.9-1.7-3.7-2.8-5.5c-0.5-0.7-1.4-0.9-2.1-0.4  c-0.7,0.5-0.9,1.4-0.4,2.1c1.1,1.7,2,3.5,2.7,5.4l-3.5-1.1c-0.8-0.3-1.6,0.2-1.9,1c-0.3,0.8,0.2,1.6,1,1.9l6.9,2.2  c0.1,0,0.3,0.1,0.5,0.1s0.5-0.1,0.7-0.2c0.4-0.2,0.6-0.5,0.7-0.9l2.4-7.4C-173.8,382.7-174.3,381.8-175.1,381.6z"></path></svg>